<mxfile host="Electron" modified="2024-03-24T04:01:11.114Z" agent="Mozilla/5.0 (Windows NT 10.0; Win64; x64) AppleWebKit/537.36 (KHTML, like Gecko) draw.io/24.1.0 Chrome/120.0.6099.109 Electron/28.1.0 Safari/537.36" etag="6q5k-NaUWcEdsOdL3M7-" version="24.1.0" type="device">
  <diagram name="Page-1" id="hxGnjCNBtSV85zxfPFeE">
    <mxGraphModel dx="2603" dy="1515" grid="1" gridSize="10" guides="0" tooltips="1" connect="1" arrows="1" fold="1" page="1" pageScale="1" pageWidth="1920" pageHeight="1200" math="0" shadow="0">
      <root>
        <mxCell id="0" />
        <mxCell id="1" parent="0" />
        <mxCell id="bKPQsAV12vm0boF3C-H3-8" value="" style="rounded=0;whiteSpace=wrap;html=1;rotation=90;movable=0;resizable=0;rotatable=0;deletable=0;editable=0;locked=1;connectable=0;" parent="1" vertex="1">
          <mxGeometry x="12.5" y="177.5" width="612.5" height="387.5" as="geometry" />
        </mxCell>
        <mxCell id="bKPQsAV12vm0boF3C-H3-29" style="rounded=0;orthogonalLoop=1;jettySize=auto;html=1;entryX=0;entryY=0.5;entryDx=0;entryDy=0;endArrow=none;endFill=0;" parent="1" source="bKPQsAV12vm0boF3C-H3-9" target="bKPQsAV12vm0boF3C-H3-16" edge="1">
          <mxGeometry relative="1" as="geometry" />
        </mxCell>
        <mxCell id="Nz69gRH49htbH8ONwdtx-12" style="rounded=0;orthogonalLoop=1;jettySize=auto;html=1;endArrow=none;endFill=0;" edge="1" parent="1" source="bKPQsAV12vm0boF3C-H3-9" target="Nz69gRH49htbH8ONwdtx-4">
          <mxGeometry relative="1" as="geometry" />
        </mxCell>
        <mxCell id="Nz69gRH49htbH8ONwdtx-14" style="rounded=0;orthogonalLoop=1;jettySize=auto;html=1;endArrow=none;endFill=0;" edge="1" parent="1" source="bKPQsAV12vm0boF3C-H3-9" target="Nz69gRH49htbH8ONwdtx-5">
          <mxGeometry relative="1" as="geometry" />
        </mxCell>
        <mxCell id="Nz69gRH49htbH8ONwdtx-28" style="rounded=0;orthogonalLoop=1;jettySize=auto;html=1;endArrow=none;endFill=0;" edge="1" parent="1" source="bKPQsAV12vm0boF3C-H3-9" target="smM5Tx4hpJfbB_3lufsS-2">
          <mxGeometry relative="1" as="geometry" />
        </mxCell>
        <mxCell id="bKPQsAV12vm0boF3C-H3-9" value="Dealer" style="shape=umlActor;verticalLabelPosition=bottom;verticalAlign=top;html=1;outlineConnect=0;" parent="1" vertex="1">
          <mxGeometry x="30" y="290" width="30" height="60" as="geometry" />
        </mxCell>
        <mxCell id="bKPQsAV12vm0boF3C-H3-10" value="Blackjack Application" style="text;html=1;align=center;verticalAlign=middle;whiteSpace=wrap;rounded=0;" parent="1" vertex="1">
          <mxGeometry x="260" y="70" width="120" height="20" as="geometry" />
        </mxCell>
        <mxCell id="Nz69gRH49htbH8ONwdtx-27" style="rounded=0;orthogonalLoop=1;jettySize=auto;html=1;dashed=1;" edge="1" parent="1" source="bKPQsAV12vm0boF3C-H3-16" target="bKPQsAV12vm0boF3C-H3-17">
          <mxGeometry relative="1" as="geometry" />
        </mxCell>
        <mxCell id="bKPQsAV12vm0boF3C-H3-16" value="Login" style="ellipse;whiteSpace=wrap;html=1;" parent="1" vertex="1">
          <mxGeometry x="180" y="170" width="80" height="30" as="geometry" />
        </mxCell>
        <mxCell id="bKPQsAV12vm0boF3C-H3-24" style="rounded=0;orthogonalLoop=1;jettySize=auto;html=1;dashed=1;" parent="1" source="bKPQsAV12vm0boF3C-H3-17" target="bKPQsAV12vm0boF3C-H3-23" edge="1">
          <mxGeometry relative="1" as="geometry" />
        </mxCell>
        <mxCell id="bKPQsAV12vm0boF3C-H3-17" value="&lt;font size=&quot;1&quot;&gt;Verify&amp;nbsp;Info&lt;/font&gt;" style="ellipse;whiteSpace=wrap;html=1;" parent="1" vertex="1">
          <mxGeometry x="400" y="130" width="60" height="30" as="geometry" />
        </mxCell>
        <mxCell id="bKPQsAV12vm0boF3C-H3-23" value="&lt;font size=&quot;1&quot;&gt;Check Employe Registry&lt;/font&gt;" style="ellipse;whiteSpace=wrap;html=1;" parent="1" vertex="1">
          <mxGeometry x="360" y="190" width="80" height="40" as="geometry" />
        </mxCell>
        <mxCell id="bKPQsAV12vm0boF3C-H3-25" value="&lt;font style=&quot;font-size: 10px;&quot;&gt;&amp;lt;&amp;lt;includes&amp;gt;&amp;gt;&lt;/font&gt;" style="text;html=1;align=center;verticalAlign=middle;whiteSpace=wrap;rounded=0;" parent="1" vertex="1">
          <mxGeometry x="390" y="160" width="60" height="30" as="geometry" />
        </mxCell>
        <mxCell id="bKPQsAV12vm0boF3C-H3-26" value="&lt;font size=&quot;1&quot;&gt;Display Login Error&lt;/font&gt;" style="ellipse;whiteSpace=wrap;html=1;" parent="1" vertex="1">
          <mxGeometry x="410" y="270" width="80" height="40" as="geometry" />
        </mxCell>
        <mxCell id="bKPQsAV12vm0boF3C-H3-28" value="&lt;font style=&quot;font-size: 10px;&quot;&gt;&amp;lt;&amp;lt;extend&amp;gt;&amp;gt;&lt;/font&gt;" style="text;html=1;align=center;verticalAlign=middle;whiteSpace=wrap;rounded=0;movable=1;resizable=1;rotatable=1;deletable=1;editable=1;locked=0;connectable=1;" parent="1" vertex="1">
          <mxGeometry x="410" y="230" width="60" height="30" as="geometry" />
        </mxCell>
        <mxCell id="Nz69gRH49htbH8ONwdtx-17" style="rounded=0;orthogonalLoop=1;jettySize=auto;html=1;dashed=1;" edge="1" parent="1" source="smM5Tx4hpJfbB_3lufsS-2" target="Nz69gRH49htbH8ONwdtx-10">
          <mxGeometry relative="1" as="geometry" />
        </mxCell>
        <mxCell id="smM5Tx4hpJfbB_3lufsS-2" value="Open Table" style="ellipse;whiteSpace=wrap;html=1;" parent="1" vertex="1">
          <mxGeometry x="180" y="250" width="80" height="50" as="geometry" />
        </mxCell>
        <mxCell id="smM5Tx4hpJfbB_3lufsS-4" value="" style="rounded=0;whiteSpace=wrap;html=1;rotation=90;movable=1;resizable=1;rotatable=1;deletable=1;editable=1;locked=0;connectable=1;" parent="1" vertex="1">
          <mxGeometry x="600" y="177.5" width="612.5" height="387.5" as="geometry" />
        </mxCell>
        <mxCell id="smM5Tx4hpJfbB_3lufsS-5" style="rounded=0;orthogonalLoop=1;jettySize=auto;html=1;entryX=0;entryY=0.5;entryDx=0;entryDy=0;endArrow=none;endFill=0;movable=0;resizable=0;rotatable=0;deletable=0;editable=0;locked=1;connectable=0;" parent="1" source="smM5Tx4hpJfbB_3lufsS-7" target="smM5Tx4hpJfbB_3lufsS-9" edge="1">
          <mxGeometry relative="1" as="geometry" />
        </mxCell>
        <mxCell id="Nz69gRH49htbH8ONwdtx-33" style="rounded=0;orthogonalLoop=1;jettySize=auto;html=1;endArrow=none;endFill=0;movable=0;resizable=0;rotatable=0;deletable=0;editable=0;locked=1;connectable=0;" edge="1" parent="1" source="smM5Tx4hpJfbB_3lufsS-7" target="Nz69gRH49htbH8ONwdtx-7">
          <mxGeometry relative="1" as="geometry" />
        </mxCell>
        <mxCell id="smM5Tx4hpJfbB_3lufsS-7" value="Customer" style="shape=umlActor;verticalLabelPosition=bottom;verticalAlign=top;html=1;outlineConnect=0;movable=0;resizable=0;rotatable=0;deletable=0;editable=0;locked=1;connectable=0;" parent="1" vertex="1">
          <mxGeometry x="580" y="250" width="30" height="60" as="geometry" />
        </mxCell>
        <mxCell id="smM5Tx4hpJfbB_3lufsS-8" value="Blackjack Application" style="text;html=1;align=center;verticalAlign=middle;whiteSpace=wrap;rounded=0;movable=0;resizable=0;rotatable=0;deletable=0;editable=0;locked=1;connectable=0;" parent="1" vertex="1">
          <mxGeometry x="840" y="80" width="132.5" height="20" as="geometry" />
        </mxCell>
        <mxCell id="smM5Tx4hpJfbB_3lufsS-9" value="Login" style="ellipse;whiteSpace=wrap;html=1;movable=0;resizable=0;rotatable=0;deletable=0;editable=0;locked=1;connectable=0;" parent="1" vertex="1">
          <mxGeometry x="750" y="140" width="80" height="30" as="geometry" />
        </mxCell>
        <mxCell id="smM5Tx4hpJfbB_3lufsS-25" style="rounded=0;orthogonalLoop=1;jettySize=auto;html=1;entryX=1;entryY=0;entryDx=0;entryDy=0;dashed=1;movable=0;resizable=0;rotatable=0;deletable=0;editable=0;locked=1;connectable=0;" parent="1" source="smM5Tx4hpJfbB_3lufsS-11" target="smM5Tx4hpJfbB_3lufsS-24" edge="1">
          <mxGeometry relative="1" as="geometry" />
        </mxCell>
        <mxCell id="smM5Tx4hpJfbB_3lufsS-11" value="&lt;font size=&quot;1&quot;&gt;Verify&amp;nbsp;Info&lt;/font&gt;" style="ellipse;whiteSpace=wrap;html=1;movable=0;resizable=0;rotatable=0;deletable=0;editable=0;locked=1;connectable=0;" parent="1" vertex="1">
          <mxGeometry x="890" y="170" width="60" height="30" as="geometry" />
        </mxCell>
        <mxCell id="smM5Tx4hpJfbB_3lufsS-12" style="rounded=0;orthogonalLoop=1;jettySize=auto;html=1;entryX=0.076;entryY=0.693;entryDx=0;entryDy=0;entryPerimeter=0;dashed=1;movable=0;resizable=0;rotatable=0;deletable=0;editable=0;locked=1;connectable=0;" parent="1" source="smM5Tx4hpJfbB_3lufsS-9" target="smM5Tx4hpJfbB_3lufsS-11" edge="1">
          <mxGeometry relative="1" as="geometry" />
        </mxCell>
        <mxCell id="smM5Tx4hpJfbB_3lufsS-13" value="&lt;font style=&quot;font-size: 10px;&quot;&gt;&amp;lt;&amp;lt;includes&amp;gt;&amp;gt;&lt;/font&gt;" style="text;html=1;align=center;verticalAlign=middle;whiteSpace=wrap;rounded=0;movable=0;resizable=0;rotatable=0;deletable=0;editable=0;locked=1;connectable=0;" parent="1" vertex="1">
          <mxGeometry x="820" y="160" width="60" height="30" as="geometry" />
        </mxCell>
        <mxCell id="smM5Tx4hpJfbB_3lufsS-23" style="rounded=0;orthogonalLoop=1;jettySize=auto;html=1;entryX=0.5;entryY=1;entryDx=0;entryDy=0;dashed=1;movable=0;resizable=0;rotatable=0;deletable=0;editable=0;locked=1;connectable=0;" parent="1" source="smM5Tx4hpJfbB_3lufsS-17" target="smM5Tx4hpJfbB_3lufsS-11" edge="1">
          <mxGeometry relative="1" as="geometry" />
        </mxCell>
        <mxCell id="smM5Tx4hpJfbB_3lufsS-17" value="&lt;font size=&quot;1&quot;&gt;Display Login Error&lt;/font&gt;" style="ellipse;whiteSpace=wrap;html=1;movable=0;resizable=0;rotatable=0;deletable=0;editable=0;locked=1;connectable=0;" parent="1" vertex="1">
          <mxGeometry x="1000" y="240" width="80" height="40" as="geometry" />
        </mxCell>
        <mxCell id="smM5Tx4hpJfbB_3lufsS-19" value="&lt;font style=&quot;font-size: 10px;&quot;&gt;&amp;lt;&amp;lt;extend&amp;gt;&amp;gt;&lt;/font&gt;" style="text;html=1;align=center;verticalAlign=middle;whiteSpace=wrap;rounded=0;movable=0;resizable=0;rotatable=0;deletable=0;editable=0;locked=1;connectable=0;" parent="1" vertex="1">
          <mxGeometry x="1020" y="180" width="60" height="30" as="geometry" />
        </mxCell>
        <mxCell id="smM5Tx4hpJfbB_3lufsS-24" value="Verify Age" style="ellipse;whiteSpace=wrap;html=1;movable=0;resizable=0;rotatable=0;deletable=0;editable=0;locked=1;connectable=0;" parent="1" vertex="1">
          <mxGeometry x="990" y="110" width="80" height="30" as="geometry" />
        </mxCell>
        <mxCell id="smM5Tx4hpJfbB_3lufsS-26" value="&lt;font style=&quot;font-size: 10px;&quot;&gt;&amp;lt;&amp;lt;includes&amp;gt;&amp;gt;&lt;/font&gt;" style="text;html=1;align=center;verticalAlign=middle;whiteSpace=wrap;rounded=0;movable=0;resizable=0;rotatable=0;deletable=0;editable=0;locked=1;connectable=0;" parent="1" vertex="1">
          <mxGeometry x="950" y="140" width="60" height="30" as="geometry" />
        </mxCell>
        <mxCell id="smM5Tx4hpJfbB_3lufsS-27" style="rounded=0;orthogonalLoop=1;jettySize=auto;html=1;entryX=0.948;entryY=0.822;entryDx=0;entryDy=0;entryPerimeter=0;dashed=1;movable=0;resizable=0;rotatable=0;deletable=0;editable=0;locked=1;connectable=0;" parent="1" source="smM5Tx4hpJfbB_3lufsS-17" target="smM5Tx4hpJfbB_3lufsS-24" edge="1">
          <mxGeometry relative="1" as="geometry" />
        </mxCell>
        <mxCell id="smM5Tx4hpJfbB_3lufsS-28" value="&lt;font style=&quot;font-size: 10px;&quot;&gt;&amp;lt;&amp;lt;extend&amp;gt;&amp;gt;&lt;/font&gt;" style="text;html=1;align=center;verticalAlign=middle;whiteSpace=wrap;rounded=0;movable=0;resizable=0;rotatable=0;deletable=0;editable=0;locked=1;connectable=0;" parent="1" vertex="1">
          <mxGeometry x="950" y="210" width="60" height="30" as="geometry" />
        </mxCell>
        <mxCell id="smM5Tx4hpJfbB_3lufsS-32" style="rounded=0;orthogonalLoop=1;jettySize=auto;html=1;entryX=0;entryY=0;entryDx=0;entryDy=0;dashed=1;movable=0;resizable=0;rotatable=0;deletable=0;editable=0;locked=1;connectable=0;" parent="1" source="smM5Tx4hpJfbB_3lufsS-29" target="smM5Tx4hpJfbB_3lufsS-31" edge="1">
          <mxGeometry relative="1" as="geometry" />
        </mxCell>
        <mxCell id="smM5Tx4hpJfbB_3lufsS-29" value="Join Table" style="ellipse;whiteSpace=wrap;html=1;movable=0;resizable=0;rotatable=0;deletable=0;editable=0;locked=1;connectable=0;" parent="1" vertex="1">
          <mxGeometry x="730" y="310" width="110" height="60" as="geometry" />
        </mxCell>
        <mxCell id="smM5Tx4hpJfbB_3lufsS-30" style="rounded=0;orthogonalLoop=1;jettySize=auto;html=1;entryX=0.062;entryY=0.202;entryDx=0;entryDy=0;entryPerimeter=0;endArrow=none;endFill=0;movable=0;resizable=0;rotatable=0;deletable=0;editable=0;locked=1;connectable=0;" parent="1" source="smM5Tx4hpJfbB_3lufsS-7" target="smM5Tx4hpJfbB_3lufsS-29" edge="1">
          <mxGeometry relative="1" as="geometry" />
        </mxCell>
        <mxCell id="smM5Tx4hpJfbB_3lufsS-31" value="Check Funds" style="ellipse;whiteSpace=wrap;html=1;movable=0;resizable=0;rotatable=0;deletable=0;editable=0;locked=1;connectable=0;" parent="1" vertex="1">
          <mxGeometry x="920" y="320" width="80" height="30" as="geometry" />
        </mxCell>
        <mxCell id="smM5Tx4hpJfbB_3lufsS-33" value="Prompt to add funds" style="ellipse;whiteSpace=wrap;html=1;movable=0;resizable=0;rotatable=0;deletable=0;editable=0;locked=1;connectable=0;" parent="1" vertex="1">
          <mxGeometry x="1010" y="390" width="100" height="50" as="geometry" />
        </mxCell>
        <mxCell id="smM5Tx4hpJfbB_3lufsS-36" value="&lt;font style=&quot;font-size: 10px;&quot;&gt;&amp;lt;&amp;lt;includes&amp;gt;&amp;gt;&lt;/font&gt;" style="text;html=1;align=center;verticalAlign=middle;whiteSpace=wrap;rounded=0;movable=0;resizable=0;rotatable=0;deletable=0;editable=0;locked=1;connectable=0;" parent="1" vertex="1">
          <mxGeometry x="850" y="310" width="60" height="30" as="geometry" />
        </mxCell>
        <mxCell id="Nz69gRH49htbH8ONwdtx-1" style="edgeStyle=orthogonalEdgeStyle;rounded=0;orthogonalLoop=1;jettySize=auto;html=1;exitX=0.5;exitY=1;exitDx=0;exitDy=0;" edge="1" parent="1" source="bKPQsAV12vm0boF3C-H3-26" target="bKPQsAV12vm0boF3C-H3-26">
          <mxGeometry relative="1" as="geometry" />
        </mxCell>
        <mxCell id="Nz69gRH49htbH8ONwdtx-2" style="rounded=0;orthogonalLoop=1;jettySize=auto;html=1;entryX=0.744;entryY=0.887;entryDx=0;entryDy=0;entryPerimeter=0;dashed=1;" edge="1" parent="1" source="bKPQsAV12vm0boF3C-H3-26" target="bKPQsAV12vm0boF3C-H3-23">
          <mxGeometry relative="1" as="geometry" />
        </mxCell>
        <mxCell id="Nz69gRH49htbH8ONwdtx-4" value="Join Open Table as Dealer" style="ellipse;whiteSpace=wrap;html=1;" vertex="1" parent="1">
          <mxGeometry x="180" y="360" width="100" height="60" as="geometry" />
        </mxCell>
        <mxCell id="Nz69gRH49htbH8ONwdtx-5" value="Join Open Table as Dealer" style="ellipse;whiteSpace=wrap;html=1;" vertex="1" parent="1">
          <mxGeometry x="170" y="470" width="100" height="60" as="geometry" />
        </mxCell>
        <mxCell id="Nz69gRH49htbH8ONwdtx-7" value="Check Funds" style="ellipse;whiteSpace=wrap;html=1;movable=0;resizable=0;rotatable=0;deletable=0;editable=0;locked=1;connectable=0;" vertex="1" parent="1">
          <mxGeometry x="730" y="490" width="100" height="50" as="geometry" />
        </mxCell>
        <mxCell id="Nz69gRH49htbH8ONwdtx-8" value="Add Funds" style="ellipse;whiteSpace=wrap;html=1;movable=0;resizable=0;rotatable=0;deletable=0;editable=0;locked=1;connectable=0;" vertex="1" parent="1">
          <mxGeometry x="990" y="560" width="90" height="50" as="geometry" />
        </mxCell>
        <mxCell id="Nz69gRH49htbH8ONwdtx-39" style="rounded=0;orthogonalLoop=1;jettySize=auto;html=1;dashed=1;movable=0;resizable=0;rotatable=0;deletable=0;editable=0;locked=1;connectable=0;" edge="1" parent="1" source="Nz69gRH49htbH8ONwdtx-9" target="Nz69gRH49htbH8ONwdtx-7">
          <mxGeometry relative="1" as="geometry" />
        </mxCell>
        <mxCell id="Nz69gRH49htbH8ONwdtx-9" value="Cash Out" style="ellipse;whiteSpace=wrap;html=1;movable=0;resizable=0;rotatable=0;deletable=0;editable=0;locked=1;connectable=0;" vertex="1" parent="1">
          <mxGeometry x="840" y="600" width="80" height="60" as="geometry" />
        </mxCell>
        <mxCell id="Nz69gRH49htbH8ONwdtx-10" value="Play Game" style="ellipse;whiteSpace=wrap;html=1;" vertex="1" parent="1">
          <mxGeometry x="400" y="380" width="90" height="40" as="geometry" />
        </mxCell>
        <mxCell id="bKPQsAV12vm0boF3C-H3-20" value="&lt;font style=&quot;font-size: 10px;&quot;&gt;&amp;lt;&amp;lt;includes&amp;gt;&amp;gt;&lt;/font&gt;" style="text;html=1;align=center;verticalAlign=middle;whiteSpace=wrap;rounded=0;" parent="1" vertex="1">
          <mxGeometry x="290" y="160" width="60" height="30" as="geometry" />
        </mxCell>
        <mxCell id="Nz69gRH49htbH8ONwdtx-19" style="rounded=0;orthogonalLoop=1;jettySize=auto;html=1;entryX=0.091;entryY=0.817;entryDx=0;entryDy=0;entryPerimeter=0;dashed=1;" edge="1" parent="1" source="Nz69gRH49htbH8ONwdtx-4" target="Nz69gRH49htbH8ONwdtx-10">
          <mxGeometry relative="1" as="geometry" />
        </mxCell>
        <mxCell id="Nz69gRH49htbH8ONwdtx-20" style="rounded=0;orthogonalLoop=1;jettySize=auto;html=1;entryX=0.371;entryY=1.048;entryDx=0;entryDy=0;entryPerimeter=0;dashed=1;" edge="1" parent="1" source="Nz69gRH49htbH8ONwdtx-5" target="Nz69gRH49htbH8ONwdtx-10">
          <mxGeometry relative="1" as="geometry" />
        </mxCell>
        <mxCell id="Nz69gRH49htbH8ONwdtx-21" value="&lt;font style=&quot;font-size: 10px;&quot;&gt;&amp;lt;&amp;lt;includes&amp;gt;&amp;gt;&lt;/font&gt;" style="text;html=1;align=center;verticalAlign=middle;whiteSpace=wrap;rounded=0;" vertex="1" parent="1">
          <mxGeometry x="300" y="310" width="60" height="30" as="geometry" />
        </mxCell>
        <mxCell id="Nz69gRH49htbH8ONwdtx-22" value="&lt;font style=&quot;font-size: 10px;&quot;&gt;&amp;lt;&amp;lt;includes&amp;gt;&amp;gt;&lt;/font&gt;" style="text;html=1;align=center;verticalAlign=middle;whiteSpace=wrap;rounded=0;" vertex="1" parent="1">
          <mxGeometry x="310" y="380" width="60" height="30" as="geometry" />
        </mxCell>
        <mxCell id="Nz69gRH49htbH8ONwdtx-26" value="&lt;font style=&quot;font-size: 10px;&quot;&gt;&amp;lt;&amp;lt;includes&amp;gt;&amp;gt;&lt;/font&gt;" style="text;html=1;align=center;verticalAlign=middle;whiteSpace=wrap;rounded=0;" vertex="1" parent="1">
          <mxGeometry x="290" y="440" width="60" height="30" as="geometry" />
        </mxCell>
        <mxCell id="Nz69gRH49htbH8ONwdtx-31" style="rounded=0;orthogonalLoop=1;jettySize=auto;html=1;entryX=0.928;entryY=0.725;entryDx=0;entryDy=0;entryPerimeter=0;dashed=1;movable=0;resizable=0;rotatable=0;deletable=0;editable=0;locked=1;connectable=0;" edge="1" parent="1" source="smM5Tx4hpJfbB_3lufsS-33" target="smM5Tx4hpJfbB_3lufsS-31">
          <mxGeometry relative="1" as="geometry" />
        </mxCell>
        <mxCell id="Nz69gRH49htbH8ONwdtx-32" value="&lt;font style=&quot;font-size: 10px;&quot;&gt;&amp;lt;&amp;lt;extend&amp;gt;&amp;gt;&lt;/font&gt;" style="text;html=1;align=center;verticalAlign=middle;whiteSpace=wrap;rounded=0;movable=0;resizable=0;rotatable=0;deletable=0;editable=0;locked=1;connectable=0;" vertex="1" parent="1">
          <mxGeometry x="990" y="350" width="60" height="30" as="geometry" />
        </mxCell>
        <mxCell id="Nz69gRH49htbH8ONwdtx-38" style="rounded=0;orthogonalLoop=1;jettySize=auto;html=1;entryX=0.912;entryY=0.742;entryDx=0;entryDy=0;entryPerimeter=0;dashed=1;movable=0;resizable=0;rotatable=0;deletable=0;editable=0;locked=1;connectable=0;" edge="1" parent="1" source="Nz69gRH49htbH8ONwdtx-8" target="Nz69gRH49htbH8ONwdtx-7">
          <mxGeometry relative="1" as="geometry" />
        </mxCell>
        <mxCell id="Nz69gRH49htbH8ONwdtx-40" value="&lt;font style=&quot;font-size: 10px;&quot;&gt;&amp;lt;&amp;lt;extend&amp;gt;&amp;gt;&lt;/font&gt;" style="text;html=1;align=center;verticalAlign=middle;whiteSpace=wrap;rounded=0;movable=0;resizable=0;rotatable=0;deletable=0;editable=0;locked=1;connectable=0;" vertex="1" parent="1">
          <mxGeometry x="890" y="540" width="60" height="30" as="geometry" />
        </mxCell>
        <mxCell id="Nz69gRH49htbH8ONwdtx-41" value="&lt;font style=&quot;font-size: 10px;&quot;&gt;&amp;lt;&amp;lt;extend&amp;gt;&amp;gt;&lt;/font&gt;" style="text;html=1;align=center;verticalAlign=middle;whiteSpace=wrap;rounded=0;movable=0;resizable=0;rotatable=0;deletable=0;editable=0;locked=1;connectable=0;" vertex="1" parent="1">
          <mxGeometry x="800" y="550" width="60" height="30" as="geometry" />
        </mxCell>
      </root>
    </mxGraphModel>
  </diagram>
</mxfile>
